#!OML:ASF F:\VICON\USERDATA\INSTALL\Justin_Nancy\Justin_Nancy.ASF
:FULLY-SPECIFIED
:DEGREES
126
root 5.27356 16.1382 10.27 -8.81391 57.2529 -13.31
lowerback 17.4317 -1.31155 0.268185
upperback 3.30879 -1.08873 5.78317
thorax -6.10387 -0.41963 6.31215
lowerneck -15.2965 -2.06392 -5.92612
upperneck 14.1564 -2.08113 3.70549
head 6.94503 -0.985794 1.95542
rclavicle 7.55382e-015 1.21656e-013
rhumerus -39.4356 23.24 -92.7536
rradius 108.059
rwrist -18.0904
rhand -10.3034 26.9061
rfingers 7.12502
rthumb 15.6915 -2.47766
lclavicle 7.55382e-015 1.21656e-013
lhumerus -47.9709 -20.9047 100.378
lradius 84.4966
lwrist 21.7348
lhand -24.0656 8.21978
lfingers 7.12502
lthumb 2.41398 38.1859
rfemur -27.9464 6.96846 8.28413
rtibia 47.9791
rfoot -13.3992 12.8124
rtoes -15.5919
lfemur -20.9879 4.84993 -33.5947
ltibia 83.1665
lfoot 7.17298 -5.99186
ltoes 0.295274
127
root 5.57374 16.14 10.4302 -10.4969 57.7418 -15.3482
lowerback 17.6371 -1.09714 0.947512
upperback 3.20787 -0.647709 5.93318
thorax -6.37859 -0.205781 5.99685
lowerneck -15.4155 -2.29516 -5.88835
upperneck 14.308 -2.43548 3.9132
head 7.03462 -1.13432 1.97967
rclavicle 7.97127e-014 1.90833e-014
rhumerus -38.7104 24.166 -93.5873
rradius 109.681
rwrist -17.7859
rhand -10.564 26.4866
rfingers 7.12502
rthumb 15.4404 -2.91669
lclavicle 7.97127e-014 1.90833e-014
lhumerus -48.2055 -19.7205 100.238
lradius 82.2683
lwrist 20.5132
lhand -25.0303 8.77878
lfingers 7.12502
lthumb 1.4823 38.7534
rfemur -25.6974 7.72065 9.52551
rtibia 46.9024
rfoot -15.1783 11.0501
rtoes -15.7377
lfemur -24.2617 5.84811 -30.8812
ltibia 87.0893
lfoot 4.89886 -6.10033
ltoes -0.803229
128
root 5.889 16.1436 10.5917 -11.4969 57.8634 -16.8558
lowerback 17.4236 -0.653223 1.21832
upperback 3.13024 -0.000924356 6.11527
thorax -6.40988 0.109686 5.88775
lowerneck -15.5355 -2.63296 -5.9358
upperneck 14.3108 -2.90353 4.06263
head 7.08343 -1.34651 1.98501
rclavicle -2.60408e-014 1.35174e-014
rhumerus -37.7338 25.2907 -93.9347
rradius 111.249
rwrist -17.2787
rhand -11.7922 26.288
rfingers 7.12502
rthumb 14.2572 -3.20261
lclavicle -2.60408e-014 1.35174e-014
lhumerus -48.8243 -18.6182 100.318
lradius 81.3685
lwrist 20.3357
lhand -25.6465 9.03667
lfingers 7.12502
lthumb 0.887197 39.0146
rfemur -23.6431 8.14251 10.6888
rtibia 45.6957
rfoot -17.0094 8.75289
rtoes -17.7742
lfemur -27.7104 7.41091 -28.4576
ltibia 90.405
lfoot 2.68102 -6.39415
ltoes -0.0770646
129
root 6.17879 16.127 10.7362 -13.4943 58.4708 -19.099
lowerback 18.0068 -0.447184 1.92544
upperback 2.99776 0.47419 6.33501
thorax -6.91296 0.340867 5.63107
lowerneck -15.7873 -3.04313 -6.26864
upperneck 14.4178 -3.45342 4.52201
head 7.20511 -1.58374 2.12792
rclavicle -8.62725e-014 2.0276e-014
rhumerus -36.575 26.4598 -93.9931
rradius 112.63
rwrist -16.8129
rhand -10.9844 26.5036
rfingers 7.12502
rthumb 15.0355 -2.93044
lclavicle -8.62725e-014 2.0276e-014
lhumerus -49.9454 -17.4159 100.319
lradius 81.7328
lwrist 20.9511
lhand -25.0431 8.24427
lfingers 7.12502
lthumb 1.4699 38.2189
rfemur -21.1273 8.08062 12.2516
rtibia 44.3545
rfoot -18.6096 6.82249
rtoes -19.8493
lfemur -31.2148 8.49534 -25.9999
ltibia 93.3848
lfoot 0.929819 -6.21534
ltoes 0.336245
130
root 6.4826 16.1142 10.8742 -15.5822 58.7897 -21.4111
lowerback 18.6211 -0.358576 2.93667
upperback 2.85375 0.841363 6.2853
thorax -7.42152 0.499737 4.9223
lowerneck -15.9902 -3.24841 -6.24486
upperneck 14.4466 -3.85292 5.22222
head 7.2859 -1.70612 2.30812
rclavicle -9.64106e-014 1.43125e-014
rhumerus -35.5002 27.4104 -94.5867
rradius 113.952
rwrist -16.2759
rhand -8.92256 26.5743
rfingers 7.12502
rthumb 17.021 -2.70002
lclavicle -9.64106e-014 1.43125e-014
lhumerus -51.371 -16.1631 99.5492
lradius 82.8603
lwrist 21.8154
lhand -24.4881 8.00737
lfingers 7.12502
lthumb 2.00598 37.9777
rfemur -18.5843 8.00519 13.8346
rtibia 42.8021
rfoot -19.8311 5.16577
rtoes -20.6352
lfemur -34.5808 9.84576 -23.6115
ltibia 95.7505
lfoot -0.797316 -5.15747
ltoes -0.160595
131
root 6.79309 16.1083 11.0086 -17.3839 59.0409 -23.6703
lowerback 18.6805 -0.21351 3.55061
upperback 2.83504 1.17964 6.39625
thorax -7.48842 0.652488 4.60877
lowerneck -16.1009 -3.42401 -5.96881
upperneck 14.1589 -4.19382 5.50965
head 7.23232 -1.82656 2.31679
rclavicle 2.43511e-014 3.97569e-015
rhumerus -34.4079 28.4199 -94.9677
rradius 115.309
rwrist -15.9452
rhand -10.7111 27.4156
rfingers 7.12502
rthumb 15.2988 -1.99854
lclavicle 2.43511e-014 3.97569e-015
lhumerus -52.4422 -15.0003 99.043
lradius 84.1802
lwrist 22.5916
lhand -25.8857 8.99398
lfingers 7.12502
lthumb 0.656114 38.9727
rfemur -16.2806 7.63478 15.241
rtibia 41.0477
rfoot -20.5795 3.444
rtoes -22.2737
lfemur -38.1307 11.1594 -21.4221
ltibia 97.4929
lfoot -2.20566 -2.87271
ltoes 0.564617
132
root 7.109 16.1226 11.1463 -19.0986 58.904 -25.7123
lowerback 18.7183 0.29614 3.63325
upperback 2.91733 1.91671 6.8043
thorax -7.47472 1.02062 4.8248
lowerneck -15.9438 -3.77909 -5.99024
upperneck 13.5792 -4.69483 5.70867
head 7.05303 -2.05513 2.32858
rclavicle -2.67365e-014 5.56597e-015
rhumerus -33.5502 29.0821 -94.643
rradius 116.799
rwrist -15.9902
rhand -12.5605 28.092
rfingers 7.12502
rthumb 13.5168 -1.4493
lclavicle -2.67365e-014 5.56597e-015
lhumerus -53.4674 -14.2544 99.2564
lradius 85.871
lwrist 23.8884
lhand -27.5044 10.1895
lfingers 7.12502
lthumb -0.907253 40.1674
rfemur -13.7474 8.51482 16.7169
rtibia 39.0548
rfoot -20.9993 1.31367
rtoes -24.1634
lfemur -41.3146 13.1156 -19.3867
ltibia 98.391
lfoot -4.27084 -3.42392
ltoes -2.10825
133
root 7.44392 16.1413 11.2692 -19.7776 58.9032 -26.5457
lowerback 18.7783 0.801135 3.54567
upperback 2.92339 2.57263 6.82507
thorax -7.54534 1.34155 4.73173
lowerneck -15.768 -4.15168 -5.97175
upperneck 13.2085 -5.26218 6.07281
head 6.94818 -2.29888 2.38213
rclavicle -5.78463e-014 5.56597e-015
rhumerus -33.0198 29.28 -94.4136
rradius 118.235
rwrist -15.8675
rhand -12.6302 28.5951
rfingers 7.12502
rthumb 13.4497 -0.950663
lclavicle -5.78463e-014 5.56597e-015
lhumerus -54.7582 -13.9539 99.0924
lradius 87.9318
lwrist 25.5784
lhand -27.3808 9.69955
lfingers 7.12502
lthumb -0.787864 39.6778
rfemur -11.2167 9.43466 17.327
rtibia 36.9432
rfoot -21.1203 0.603983
rtoes -23.6543
lfemur -44.2939 14.8718 -18.5612
ltibia 98.5012
lfoot -5.42604 -3.36755
ltoes -5.07076
134
root 7.7914 16.1704 11.3667 -19.2393 59.3592 -26.1671
lowerback 18.7441 1.01702 3.40604
upperback 2.77258 2.7617 6.2192
thorax -7.6747 1.4168 4.09789
lowerneck -15.32 -4.27475 -5.51185
upperneck 12.7438 -5.61758 6.5903
head 6.748 -2.41269 2.44226
rclavicle -2.27608e-014 -1.15295e-014
rhumerus -33.0068 29.3425 -95.1861
rradius 119.561
rwrist -15.4238
rhand -13.5471 29.3614
rfingers 7.12502
rthumb 12.5658 -0.240745
lclavicle -2.27608e-014 -1.15295e-014
lhumerus -56.0975 -13.6813 98.1743
lradius 89.943
lwrist 26.9264
lhand -24.546 7.81303
lfingers 7.12502
lthumb 1.95007 37.7839
rfemur -8.86999 9.8816 16.8838
rtibia 34.8066
rfoot -20.7658 0.551238
rtoes -24.2124
lfemur -47.0938 15.8073 -18.9725
ltibia 97.8259
lfoot -5.99583 -2.20228
ltoes -6.59242
